<svg width="99" height="99" viewBox="0 0 99 99" fill="none" xmlns="http://www.w3.org/2000/svg">
    <g clip-path="url(#clip0_206_569)">
    <rect width="99" height="99" rx="49.5" fill="white"/>
    <circle cx="49.5" cy="49.5" r="49.5" fill="#DEF4FF"/>
    <path d="M88.8921 86.9228C80.6949 84.1607 60.2118 73.5578 60.2118 73.5578H39.8475C39.8475 73.5578 19.3743 84.1607 11.1672 86.9228C2.96997 89.6849 2.96997 103.683 2.96997 103.683H97.0992C97.0992 103.683 97.0992 89.6849 88.902 86.9228H88.8921Z" fill="#424777"/>
    <path fill-rule="evenodd" clip-rule="evenodd" d="M39.6697 75.101L41.0062 63.8744H58.9549L60.3409 74.507L58.4392 74.5616L53.7072 77.7748L51.4302 100.188L47.6682 78.052L44.0499 74.9751L39.6697 75.101Z" fill="#C1735C"/>
    <path d="M40.2334 70.3488C40.2334 70.3488 54.1429 71.6259 59.0434 65.5275V58.5183L41.4115 60.2112L40.2334 70.3488V70.3488Z" fill="#A5503C"/>
    <path d="M40.0849 71.5971L33.3826 76.8342L42.4213 85.6551L47.6683 78.0519L40.0849 71.5971Z" fill="#515882"/>
    <path d="M53.7075 77.7746L59.9742 71.6861L66.0825 76.5173L57.9942 85.3679L53.7075 77.7746Z" fill="#515882"/>
    <path d="M45.9061 6.39564C44.6092 3.18804 38.491 1.22784 38.491 1.22784C40.0057 11.2565 45.7675 9.09834 45.7675 9.09834C45.8863 8.86074 45.9655 8.62314 46.0348 8.39544C50.5492 10.91 54.3112 1.68324 54.3112 1.68324C48.0247 2.13864 46.3021 4.59384 45.9061 6.39564V6.39564Z" fill="#FF7C59"/>
    <path fill-rule="evenodd" clip-rule="evenodd" d="M50.8663 66.6863C59.9586 66.6863 67.6551 59.0464 70.2421 48.5141C71.0926 48.3462 71.468 48.1626 71.468 48.1626C73.5471 47.0538 74.6658 44.4897 74.349 41.1534C74.1112 38.6496 72.0781 38.2646 71.0782 38.2284C70.0942 25.0652 61.4207 14.7707 50.8663 14.7707C40.3126 14.7707 31.6395 25.0639 30.6546 38.2257C29.7886 38.2132 27.4043 38.4291 27.1456 41.1534C26.8288 44.4897 27.9475 47.0538 30.0265 48.1626C30.0265 48.1626 30.472 48.3804 31.4917 48.5586L31.4892 48.5086C34.0748 59.0437 41.7724 66.6863 50.8663 66.6863Z" fill="#C1735C"/>
    <path d="M50.8659 13.2459C29.0859 12.939 30.561 38.3919 30.561 38.3919L50.8659 39.8769L71.1708 38.3919C71.1708 38.3919 72.6459 12.939 50.8659 13.2459V13.2459Z" fill="#C1735C"/>
    <path d="M36.9464 35.5218C40.2926 34.9179 43.2527 35.3931 44.7575 35.6802C45.2129 35.7693 45.6683 35.5515 45.8069 35.1753C45.9653 34.7496 45.6683 34.314 45.1535 34.215C43.4408 33.8883 40.3619 33.3933 37.1345 34.5219C36.6395 34.7001 35.7584 35.1852 36.0257 35.5713C36.1742 35.7099 36.5009 35.5911 36.9464 35.5119V35.5218Z" fill="#441D39"/>
    <path d="M64.9937 35.5321C61.6475 34.9282 58.6874 35.4034 57.1826 35.6905C56.7272 35.7796 56.2718 35.5519 56.1332 35.1757C55.9748 34.75 56.2718 34.3045 56.7866 34.2055C58.4993 33.8689 61.5782 33.3739 64.8056 34.5223C65.3006 34.7005 66.1817 35.1856 65.9144 35.5816C65.7659 35.7202 65.4392 35.6014 64.9937 35.5222V35.5321Z" fill="#441D39"/>
    <path d="M60.4596 42.8067C61.1212 42.8067 61.6575 41.8759 61.6575 40.7277C61.6575 39.5795 61.1212 38.6487 60.4596 38.6487C59.798 38.6487 59.2617 39.5795 59.2617 40.7277C59.2617 41.8759 59.798 42.8067 60.4596 42.8067Z" fill="#441D39"/>
    <path d="M42.4906 42.3813C43.1522 42.3813 43.6885 41.4505 43.6885 40.3023C43.6885 39.1541 43.1522 38.2233 42.4906 38.2233C41.829 38.2233 41.2927 39.1541 41.2927 40.3023C41.2927 41.4505 41.829 42.3813 42.4906 42.3813Z" fill="#441D39"/>
    <path d="M52.272 50.0738H50.3811C49.5396 50.0738 48.7971 49.7471 48.4011 49.2125C48.114 48.8264 48.0348 48.371 48.1734 47.9255C48.609 46.4999 48.9753 45.1535 48.9753 45.1436C49.0446 44.8763 49.3119 44.7278 49.5792 44.7971C49.8465 44.8664 50.0049 45.1436 49.9257 45.401C49.9257 45.401 49.5594 46.7771 49.1139 48.2126C49.0743 48.3512 49.0941 48.4898 49.1931 48.6284C49.401 48.9155 49.8663 49.0937 50.3811 49.0937H52.272C52.5492 49.0937 52.767 49.3115 52.767 49.5887C52.767 49.8659 52.5492 50.0837 52.272 50.0837V50.0738Z" fill="#A5503C"/>
    <path d="M47.9562 56.5283C47.0355 56.5283 46.4316 56.4788 46.3623 56.4689C46.0851 56.4491 45.8871 56.2016 45.9069 55.9343C45.9267 55.667 46.1643 55.4591 46.4415 55.4789C46.5009 55.4789 52.0845 55.9343 56.2227 53.8949C56.4702 53.7761 56.7672 53.8751 56.886 54.1226C57.0048 54.3701 56.9058 54.6671 56.6583 54.7859C53.6289 56.2808 49.9956 56.5184 47.9463 56.5184L47.9562 56.5283Z" fill="#A5503C"/>
    <path d="M61.4492 46.0644C63.3574 46.0644 64.9043 45.7098 64.9043 45.2724C64.9043 44.835 63.3574 44.4804 61.4492 44.4804C59.541 44.4804 57.9941 44.835 57.9941 45.2724C57.9941 45.7098 59.541 46.0644 61.4492 46.0644Z" fill="#AF5D4E"/>
    <path d="M41.2925 46.0644C43.2007 46.0644 44.7476 45.7098 44.7476 45.2724C44.7476 44.835 43.2007 44.4804 41.2925 44.4804C39.3843 44.4804 37.8374 44.835 37.8374 45.2724C37.8374 45.7098 39.3843 46.0644 41.2925 46.0644Z" fill="#AF5D4E"/>
    <path d="M64.1121 22.78C64.1121 22.78 70.1115 33.6007 71.1609 38.3923C71.1609 38.3923 74.4081 23.968 66.7554 16.1668L64.1121 22.7701V22.78Z" fill="#FF7C59"/>
    <path d="M30.5609 38.3931L32.7191 30.1563H30.0857L30.5609 38.3931Z" fill="#FF7C59"/>
    <path d="M63.429 11.9001C63.429 11.9001 63.429 11.8506 63.429 11.8308C63.429 9.52412 61.5579 7.66292 59.2611 7.66292C58.7562 7.66292 58.2909 7.76192 57.8454 7.93022C56.6178 6.63332 54.6972 5.79182 52.5192 5.79182C50.5095 5.79182 48.7077 6.51452 47.4702 7.65302C46.1733 6.87092 44.5695 6.39572 42.837 6.39572C42.1044 6.39572 41.4015 6.48482 40.7283 6.63332C39.7482 5.78192 38.481 5.26712 37.0851 5.26712C34.8873 5.26712 32.9964 6.54422 32.0955 8.39552C31.551 7.94012 30.858 7.66292 30.0957 7.66292C28.3533 7.66292 26.9475 9.07862 26.9475 10.8111C26.9475 10.9992 26.9673 11.1774 27.0069 11.3556C23.5716 11.4051 20.7996 14.2068 20.7996 17.652C20.7996 19.7409 21.8193 21.5922 23.3934 22.7406C22.8093 23.691 22.4727 24.8097 22.4727 26.0175C22.4727 29.5023 25.2942 32.3238 28.779 32.3238C32.2638 32.3238 35.0853 29.5023 35.0853 26.0175C35.0853 25.9482 35.0853 25.8789 35.0754 25.8096C35.9169 26.2254 36.8574 26.463 37.8573 26.463C41.1936 26.463 43.9161 23.8692 44.1438 20.6022C45.2823 21.7605 46.8663 22.4733 48.6186 22.4733C51.2223 22.4733 53.4597 20.8893 54.42 18.6321C54.9447 21.5922 57.5187 23.8395 60.6273 23.8395C64.1121 23.8395 66.9336 21.018 66.9336 17.5332C66.9336 15.0681 65.5179 12.9396 63.4488 11.9001H63.429Z" fill="#441D39"/>
    </g>
    <defs>
    <clipPath id="clip0_206_569">
    <rect width="99" height="99" rx="49.5" fill="white"/>
    </clipPath>
    </defs>
    </svg>
    