<svg width="24" height="24" viewBox="0 0 24 24" fill="none" xmlns="http://www.w3.org/2000/svg">
    <rect width="24" height="24" rx="12" fill="#9BB168" />
    <path fill-rule="evenodd" clip-rule="evenodd"
        d="M15.8519 8.22836C16.2159 8.0776 16.606 8 17 8C17.394 8 17.7841 8.0776 18.1481 8.22836C18.512 8.37913 18.8427 8.6001 19.1213 8.87868C19.3999 9.15726 19.6209 9.48797 19.7716 9.85195C19.9224 10.2159 20 10.606 20 11C20 11.5523 19.5523 12 19 12C18.4477 12 18 11.5523 18 11C18 10.8687 17.9741 10.7386 17.9239 10.6173C17.8736 10.496 17.8 10.3858 17.7071 10.2929C17.6142 10.2 17.504 10.1264 17.3827 10.0761C17.2614 10.0259 17.1313 10 17 10C16.8687 10 16.7386 10.0259 16.6173 10.0761C16.496 10.1264 16.3858 10.2 16.2929 10.2929C16.2 10.3858 16.1264 10.496 16.0761 10.6173C16.0259 10.7386 16 10.8687 16 11C16 11.5523 15.5523 12 15 12C14.4477 12 14 11.5523 14 11C14 10.606 14.0776 10.2159 14.2284 9.85195C14.3791 9.48797 14.6001 9.15726 14.8787 8.87868C15.1573 8.6001 15.488 8.37913 15.8519 8.22836Z"
        fill="#3D4A26" />
    <path fill-rule="evenodd" clip-rule="evenodd"
        d="M17.0882 14.3281C17.6217 14.4711 17.9383 15.0194 17.7954 15.5529C17.4535 16.8287 16.7002 17.956 15.6524 18.7601C14.6045 19.5642 13.3206 20 11.9998 20C10.679 20 9.3951 19.5642 8.34723 18.7601C7.29937 17.956 6.54609 16.8287 6.20424 15.5529C6.0613 15.0194 6.37788 14.4711 6.91135 14.3281C7.44482 14.1852 7.99315 14.5018 8.1361 15.0353C8.364 15.8858 8.86618 16.6374 9.56475 17.1734C10.2633 17.7094 11.1193 18 11.9998 18C12.8803 18 13.7363 17.7094 14.4348 17.1734C15.1334 16.6374 15.6356 15.8858 15.8635 15.0353C16.0064 14.5018 16.5548 14.1852 17.0882 14.3281Z"
        fill="#3D4A26" />
    <path fill-rule="evenodd" clip-rule="evenodd"
        d="M5.85195 8.22836C6.21593 8.0776 6.60603 8 7 8C7.39397 8 7.78407 8.0776 8.14805 8.22836C8.51203 8.37913 8.84274 8.6001 9.12132 8.87868C9.3999 9.15726 9.62087 9.48797 9.77164 9.85195C9.9224 10.2159 10 10.606 10 11C10 11.5523 9.55228 12 9 12C8.44772 12 8 11.5523 8 11C8 10.8687 7.97413 10.7386 7.92388 10.6173C7.87362 10.496 7.79997 10.3858 7.70711 10.2929C7.61425 10.2 7.50401 10.1264 7.38268 10.0761C7.26136 10.0259 7.13132 10 7 10C6.86868 10 6.73864 10.0259 6.61732 10.0761C6.49599 10.1264 6.38575 10.2 6.29289 10.2929C6.20003 10.3858 6.12637 10.496 6.07612 10.6173C6.02587 10.7386 6 10.8687 6 11C6 11.5523 5.55228 12 5 12C4.44772 12 4 11.5523 4 11C4 10.606 4.0776 10.2159 4.22836 9.85195C4.37913 9.48797 4.6001 9.15726 4.87868 8.87868C5.15726 8.6001 5.48797 8.37913 5.85195 8.22836Z"
        fill="#3D4A26" />
</svg>
    